<?xml version="1.0" standalone="no"?>
<!DOCTYPE svg PUBLIC "-//W3C//DTD SVG 20010904//EN"
        "http://www.w3.org/TR/2001/REC-SVG-20010904/DTD/svg10.dtd">
<svg version="1.0" xmlns="http://www.w3.org/2000/svg"
     width="15" height="15" viewBox="300 115 450 810"
     preserveAspectRatio="xMidYMid meet">

    <g transform="translate(0.000000,1024.000000) scale(0.100000,-0.100000)" stroke="none">

        <!-- Path 1: The Pear Body -->
        <path fill="#ADFF2F" d="M4512 9093 c-51 -18 -138 -100 -177 -168 -33 -55 -43 -148 -25 -215
10 -36 27 -58 88 -115 239 -218 343 -365 420 -585 31 -89 67 -238 59 -246 -2
-2 -46 -15 -98 -28 -463 -118 -851 -452 -1027 -886 -50 -123 -75 -220 -107
-408 -87 -520 -287 -997 -597 -1428 -274 -380 -391 -588 -487 -868 -172 -499
-181 -1045 -26 -1536 133 -421 385 -786 730 -1055 246 -193 532 -324 850 -392
121 -25 147 -27 370 -27 204 -1 263 3 390 23 126 20 172 22 290 17 77 -3 181
-13 230 -21 126 -22 439 -31 561 -16 256 31 480 97 693 206 147 75 231 129
361 234 419 337 677 789 776 1357 26 145 28 181 28 399 0 266 -16 394 -74 620
-90 346 -222 608 -514 1020 -268 378 -428 702 -542 1100 -32 111 -48 186 -103
480 -37 200 -112 385 -229 560 -75 112 -254 299 -367 383 -83 62 -300 172
-405 206 -72 23 -74 24 -40 29 19 3 69 9 110 12 204 15 420 98 588 225 270
203 436 541 459 931 6 113 -4 150 -48 177 -53 34 -408 44 -565 17 -335 -58
-617 -236 -792 -501 -37 -55 -72 -108 -77 -118 -8 -15 -19 0 -64 86 -119 228
-321 486 -416 529 -50 23 -162 24 -223 2z"/>

        <!-- Path 2: The Leaf -->
        <path fill="#ADFF2F" d="M6415 8883 l47 -6 -7 -61 c-23 -208
-120 -430 -248 -572 -64 -70 -179 -153 -273 -195 -35 -16 -113 -42 -172 -56
-94 -24 -127 -27 -274 -28 -108 0 -171 4 -178 11 -13 13 8 130 42 234 65 202
201 389 361 499 182 124 497 203 702 174z"/>

        <!-- Path 3: The Fruit Meat -->
        <path fill="#ADFF2F" d="M5353 7529 c127 -26 201 -50 300
-99 271 -136 486 -353 606 -613 56 -121 85 -221 120 -417 72 -400 173 -709
333 -1022 99 -196 177 -321 343 -552 249 -349 367 -581 455 -892 57 -203 72
-309 77 -549 7 -307 -20 -496 -109 -755 -192 -561 -641 -1010 -1190 -1191
-283 -94 -527 -106 -956 -48 -172 23 -302 22 -463 -5 -425 -71 -783 -26 -1129
142 -578 281 -962 815 -1067 1484 -24 157 -24 490 1 643 65 409 222 769 492
1135 253 342 409 627 537 980 76 210 118 374 167 649 16 92 41 203 56 246 142
429 492 757 909 854 123 28 122 28 278 30 105 1 163 -4 240 -20z"/>

    </g>
</svg>